HIERARCHY
ROOT Hips
{
	OFFSET -0.001795 -0.223333 0.028219
	CHANNELS 6 Xposition Yposition Zposition Zrotation Yrotation Xrotation 
	JOINT LeftUpLeg
	{
		OFFSET 0.069520 -0.091406 -0.006815
		CHANNELS 3 Zrotation Yrotation Xrotation
		JOINT LeftLeg
		{
			OFFSET 0.034277 -0.375199 -0.004496
			CHANNELS 3 Zrotation Yrotation Xrotation
			JOINT LeftFoot
			{
				OFFSET -0.013596 -0.397961 -0.043693
				CHANNELS 3 Zrotation Yrotation Xrotation
				JOINT LeftToe
				{
					OFFSET 0.026358 -0.055791 0.119288
					CHANNELS 3 Zrotation Yrotation Xrotation
					End Site
					{
						OFFSET 0.000000 0.000000 0.000000
					}
				}
			}
		}
	}
	JOINT RightUpLeg
	{
		OFFSET -0.067670 -0.090522 -0.004320
		CHANNELS 3 Zrotation Yrotation Xrotation
		JOINT RightLeg
		{
			OFFSET -0.038290 -0.382569 -0.008850
			CHANNELS 3 Zrotation Yrotation Xrotation
			JOINT RightFoot
			{
				OFFSET 0.015774 -0.398415 -0.042312
				CHANNELS 3 Zrotation Yrotation Xrotation
				JOINT RightToe
				{
					OFFSET -0.025372 -0.048144 0.123348
					CHANNELS 3 Zrotation Yrotation Xrotation
					End Site
					{
						OFFSET 0.000000 0.000000 0.000000
					}
				}
			}
		}
	}
	JOINT Spine
	{
		OFFSET -0.002533 0.108963 -0.026696
		CHANNELS 3 Zrotation Yrotation Xrotation
		JOINT Spine1
		{
			OFFSET 0.005487 0.135180 0.001092
			CHANNELS 3 Zrotation Yrotation Xrotation
			JOINT Spine2
			{
				OFFSET 0.001457 0.052922 0.025425
				CHANNELS 3 Zrotation Yrotation Xrotation
				JOINT Neck
				{
					OFFSET -0.002778 0.213870 -0.042857
					CHANNELS 3 Zrotation Yrotation Xrotation
					JOINT Head
					{
						OFFSET 0.005152 0.064970 0.051349
						CHANNELS 3 Zrotation Yrotation Xrotation
						End Site
						{
							OFFSET 0.000000 0.000000 0.000000
						}
					}
				}
				JOINT LeftShoulder
				{
					OFFSET 0.078845 0.121749 -0.034090
					CHANNELS 3 Zrotation Yrotation Xrotation
					JOINT LeftArm
					{
						OFFSET 0.090977 0.030469 -0.008868
						CHANNELS 3 Zrotation Yrotation Xrotation
						JOINT LeftForeArm
						{
							OFFSET 0.259612 -0.012772 -0.027456
							CHANNELS 3 Zrotation Yrotation Xrotation
							JOINT LeftHand
							{
								OFFSET 0.249234 0.008986 -0.001171
								CHANNELS 3 Zrotation Yrotation Xrotation
								End Site
								{
									OFFSET 0.000000 0.000000 0.000000
								}
							}
						}
					}
				}
				JOINT RightShoulder
				{
					OFFSET -0.081759 0.118833 -0.038615
					CHANNELS 3 Zrotation Yrotation Xrotation
					JOINT RightArm
					{
						OFFSET -0.096012 0.032551 -0.009143
						CHANNELS 3 Zrotation Yrotation Xrotation
						JOINT RightForeArm
						{
							OFFSET -0.253742 -0.013329 -0.021401
							CHANNELS 3 Zrotation Yrotation Xrotation
							JOINT RightHand
							{
								OFFSET -0.255298 0.007772 -0.005559
								CHANNELS 3 Zrotation Yrotation Xrotation
								End Site
								{
									OFFSET 0.000000 0.000000 0.000000
								}
							}
						}
					}
				}
			}
		}
	}
}
MOTION
Frames: 9
Frame Time: 0.050000
0.016506 0.947154 -0.048906 -2.120886 2.858924 6.871711 9.433704 -0.413786 -7.222827 1.226154 -0.024740 -2.231709 0.618854 5.744945 11.407763 0.000000 0.000000 0.000000 -5.448450 0.760255 -11.068778 -2.514357 0.422454 2.520541 -1.754202 -7.906588 12.004935 0.000000 0.000000 0.000000 1.375890 -0.178920 2.454581 -0.424473 0.285041 -2.915911 -1.169194 2.734887 2.068132 4.550468 -0.727154 -18.910437 0.000000 0.000000 0.000000 -20.604771 -4.347742 -0.969883 -48.165242 -9.227452 -1.482477 -0.099976 -29.887733 0.845518 0.000000 0.000000 0.000000 20.444551 3.926588 1.488321 53.874708 10.563715 -0.449401 -4.838220 33.339696 0.191359 0.000000 0.000000 0.000000 
0.016863 0.947675 -0.051030 -1.975146 3.419327 7.217281 9.199419 -0.449385 -7.991010 1.182638 -0.037354 -1.833593 0.431652 5.449579 11.251495 0.000000 0.000000 0.000000 -5.561294 0.764749 -11.437053 -2.345033 0.401556 2.525718 -2.322859 -9.008333 12.479806 0.000000 0.000000 0.000000 1.251426 -0.171356 2.408713 -0.342625 0.239890 -2.533143 -1.301183 2.952540 1.959813 4.528432 -0.603305 -19.328999 0.000000 0.000000 0.000000 -20.912508 -5.226847 -0.688896 -46.666023 -10.266870 -0.968525 2.513479 -34.319180 0.097752 0.000000 0.000000 0.000000 21.367369 4.580782 2.041125 52.207996 13.200177 0.589425 -9.533042 38.606935 -1.187516 0.000000 0.000000 0.000000 
0.017419 0.948402 -0.053230 -1.648267 3.780949 7.417767 8.751917 -0.485073 -8.649368 1.058537 -0.042006 -1.463835 0.452981 5.628066 11.549654 0.000000 0.000000 0.000000 -6.086566 0.746073 -11.991149 -2.055550 0.389763 2.998990 -2.669862 -9.623061 12.549577 0.000000 0.000000 0.000000 0.981739 -0.173898 2.738832 -0.237619 0.178803 -2.068633 -1.312385 2.992674 1.519753 4.006893 -0.253187 -19.603336 0.000000 0.000000 0.000000 -21.392331 -5.856178 -0.482461 -44.737102 -11.952469 -0.242159 6.456921 -39.222500 -1.356169 0.000000 0.000000 0.000000 21.949333 5.670380 2.760270 50.006757 15.669664 1.497802 -16.338157 43.917585 -3.883591 0.000000 0.000000 0.000000 
0.018028 0.949143 -0.055299 -1.423516 4.519603 7.299560 8.508063 -0.514375 -9.021394 1.028104 -0.054752 -1.075324 0.185148 5.190382 11.297589 0.000000 0.000000 0.000000 -6.385157 0.698592 -11.816290 -1.807974 0.358849 3.036545 -3.253670 -10.656096 12.796269 0.000000 0.000000 0.000000 0.800741 -0.164072 2.760934 -0.118708 0.101883 -1.381018 -1.506802 3.111104 1.314611 3.807454 -0.037513 -20.005953 0.000000 0.000000 0.000000 -21.689283 -6.736848 -0.201654 -42.163640 -14.000726 0.530502 10.847238 -43.269190 -3.356671 0.000000 0.000000 0.000000 22.728377 6.676923 3.570091 47.253790 18.080232 2.166395 -25.131984 46.472384 -7.626845 0.000000 0.000000 0.000000 
0.018587 0.949604 -0.057146 -1.134888 4.872015 7.670927 8.267085 -0.549175 -9.524079 1.002253 -0.047394 -1.174261 0.024694 5.157528 11.843481 0.000000 0.000000 0.000000 -6.709183 0.681411 -12.096119 -1.518653 0.335379 3.382505 -3.496454 -11.005900 12.405334 0.000000 0.000000 0.000000 0.689452 -0.154248 2.672072 -0.108139 0.077477 -0.903131 -1.573729 3.151010 1.130525 3.448611 0.210074 -20.250375 0.000000 0.000000 0.000000 -21.707817 -7.206452 -0.018826 -39.868549 -15.740174 1.076145 17.195536 -46.113166 -6.385325 0.000000 0.000000 0.000000 22.495650 7.637436 4.213269 45.159929 20.041033 2.699208 -33.372906 46.780356 -11.064232 0.000000 0.000000 0.000000 
0.018949 0.949773 -0.058807 -0.858751 5.144942 7.656944 7.986239 -0.569958 -9.727922 1.141866 -0.070209 -0.924454 -0.221638 4.760649 11.762732 0.000000 0.000000 0.000000 -6.835231 0.658196 -11.901000 -1.356327 0.322278 3.599787 -3.813354 -11.505242 11.911033 0.000000 0.000000 0.000000 0.512958 -0.143113 2.660977 -0.023431 0.038295 -0.889390 -1.733738 3.329876 1.316721 2.593503 0.781916 -21.000800 0.000000 0.000000 0.000000 -21.898827 -7.612353 0.079197 -36.848358 -17.320643 1.442325 24.786850 -47.550332 -10.089519 0.000000 0.000000 0.000000 22.413618 8.252084 4.703047 42.294261 21.491985 2.830149 -39.887052 45.376584 -13.256569 0.000000 0.000000 0.000000 
0.019100 0.949487 -0.060334 -0.788374 5.426229 7.678525 7.800844 -0.585075 -9.794696 1.341001 -0.076665 -1.156202 -0.148854 4.917360 11.766875 0.000000 0.000000 0.000000 -6.849648 0.648736 -11.811555 -1.209013 0.310128 3.812777 -3.999369 -11.779034 11.521665 0.000000 0.000000 0.000000 0.460182 -0.143339 2.726934 -0.147346 0.083945 -0.630143 -1.532511 3.182487 1.128756 1.922699 1.176872 -21.513734 0.000000 0.000000 0.000000 -21.622707 -7.454548 0.032428 -34.468395 -18.961341 1.749325 33.389069 -46.856796 -13.847586 0.000000 0.000000 0.000000 21.987121 9.109823 5.163469 39.919945 22.882500 3.023245 -44.872392 42.106163 -14.029075 0.000000 0.000000 0.000000 
0.018950 0.949332 -0.061780 -0.562688 5.774009 7.832012 7.734510 -0.604168 -10.025659 1.183859 -0.072788 -0.919899 -0.274792 4.639979 11.464560 0.000000 0.000000 0.000000 -6.880815 0.638047 -11.724913 -1.066070 0.284439 3.712823 -4.311859 -12.275225 10.932234 0.000000 0.000000 0.000000 0.535998 -0.140897 2.574902 -0.252392 0.131537 -0.621104 -1.811808 3.114201 1.130425 1.436992 1.488130 -21.982645 0.000000 0.000000 0.000000 -21.566178 -8.105291 0.348023 -30.816153 -20.516315 1.860969 40.343173 -44.406221 -16.132971 0.000000 0.000000 0.000000 22.150354 9.398830 5.409511 36.519688 24.012064 2.881004 -48.392267 38.779936 -13.921621 0.000000 0.000000 0.000000 
0.018712 0.949366 -0.063047 -0.429083 5.744468 7.865971 7.563281 -0.621661 -10.385873 1.146560 -0.088828 -0.491422 -0.116110 4.890949 11.435320 0.000000 0.000000 0.000000 -6.898675 0.638913 -11.782651 -1.010451 0.288221 3.999777 -4.210717 -12.027986 10.418522 0.000000 0.000000 0.000000 0.537336 -0.136002 2.472744 -0.372377 0.208404 -1.137121 -1.804311 3.347017 1.383653 1.402899 1.552978 -22.236507 0.000000 0.000000 0.000000 -20.241210 -8.051717 0.404154 -28.524941 -22.298626 2.004946 45.817077 -41.198345 -17.268150 0.000000 0.000000 0.000000 20.838936 9.293724 5.303298 34.546512 25.414889 2.997602 -51.194910 35.018916 -13.090878 0.000000 0.000000 0.000000 
